<svg width="247" height="125" viewBox="0 0 247 125" fill="none" xmlns="http://www.w3.org/2000/svg">
<path d="M244.611 124.191C244.774 124.194 244.937 124.167 245.091 124.111C245.467 123.983 245.778 123.712 245.954 123.355C246.13 122.999 246.158 122.587 246.031 122.211L245.491 120.641C245.358 120.266 245.082 119.958 244.723 119.787C244.363 119.615 243.951 119.593 243.576 119.726C243.2 119.858 242.893 120.135 242.722 120.494C242.55 120.853 242.528 121.266 242.661 121.641C242.831 122.151 243.011 122.641 243.181 123.181C243.285 123.477 243.478 123.733 243.734 123.914C243.991 124.095 244.297 124.192 244.611 124.191ZM241.191 115.191C241.393 115.191 241.594 115.15 241.781 115.071C241.967 114.995 242.135 114.882 242.276 114.739C242.417 114.596 242.528 114.426 242.602 114.239C242.676 114.052 242.711 113.853 242.706 113.652C242.7 113.451 242.654 113.253 242.571 113.071C241.501 110.551 240.351 108.071 239.151 105.741C239.061 105.566 238.937 105.41 238.787 105.282C238.637 105.155 238.463 105.058 238.275 104.997C238.088 104.937 237.89 104.914 237.694 104.93C237.497 104.946 237.306 105.001 237.131 105.091C236.955 105.181 236.799 105.304 236.672 105.455C236.544 105.605 236.448 105.779 236.387 105.966C236.327 106.154 236.304 106.351 236.32 106.548C236.336 106.744 236.391 106.936 236.481 107.111C237.651 109.391 238.771 111.791 239.811 114.241C239.922 114.517 240.112 114.753 240.358 114.921C240.604 115.088 240.893 115.179 241.191 115.181V115.191ZM233.911 101.011C234.186 101.013 234.457 100.936 234.691 100.791C234.859 100.688 235.005 100.554 235.121 100.394C235.237 100.235 235.32 100.055 235.365 99.863C235.411 99.6715 235.418 99.4728 235.386 99.2784C235.355 99.0841 235.285 98.898 235.181 98.7308C233.751 96.4108 232.181 94.1508 230.631 92.0208C230.392 91.7013 230.036 91.4896 229.641 91.4324C229.247 91.3752 228.845 91.4771 228.526 91.7158C228.206 91.9545 227.994 92.3104 227.937 92.7052C227.88 93.0999 227.982 93.5012 228.221 93.8208C229.761 95.8708 231.221 98.0608 232.631 100.301C232.766 100.517 232.955 100.696 233.179 100.818C233.403 100.941 233.655 101.004 233.911 101.001V101.011ZM224.361 88.2608C224.65 88.2587 224.934 88.1731 225.176 88.0145C225.418 87.8559 225.61 87.6308 225.728 87.3662C225.846 87.1016 225.886 86.8086 225.842 86.5221C225.798 86.2357 225.673 85.9679 225.481 85.7508C223.671 83.7508 221.741 81.8108 219.751 80.0008C219.609 79.8482 219.437 79.7267 219.246 79.6442C219.055 79.5616 218.848 79.5198 218.64 79.5213C218.432 79.5229 218.226 79.5677 218.036 79.6531C217.846 79.7385 217.676 79.8625 217.537 80.0173C217.397 80.172 217.292 80.3541 217.227 80.5519C217.161 80.7497 217.138 80.9589 217.158 81.1662C217.178 81.3735 217.241 81.5743 217.343 81.7559C217.445 81.9374 217.584 82.0958 217.751 82.2208C219.671 83.9708 221.531 85.8308 223.271 87.7608C223.409 87.9133 223.577 88.0356 223.764 88.1199C223.952 88.2042 224.155 88.2488 224.361 88.2508V88.2608ZM212.581 77.5408C212.815 77.5421 213.046 77.4874 213.255 77.3813C213.463 77.2752 213.644 77.1207 213.781 76.9308C214.019 76.6126 214.122 76.2125 214.066 75.8187C214.009 75.4249 213.799 75.0695 213.481 74.8308C211.331 73.2308 209.061 71.7108 206.741 70.3008C206.573 70.1822 206.382 70.0994 206.18 70.0577C205.979 70.016 205.771 70.0162 205.569 70.0583C205.368 70.1004 205.177 70.1835 205.009 70.3024C204.841 70.4214 204.7 70.5736 204.593 70.7497C204.486 70.9257 204.417 71.1218 204.39 71.3258C204.362 71.5297 204.377 71.7372 204.433 71.9352C204.489 72.1332 204.585 72.3176 204.716 72.4768C204.846 72.6361 205.008 72.7668 205.191 72.8608C207.431 74.2208 209.611 75.6908 211.691 77.2408C211.948 77.4319 212.26 77.5337 212.581 77.5308V77.5408ZM198.961 69.2508C199.301 69.2522 199.631 69.1381 199.898 68.927C200.164 68.7159 200.351 68.4206 200.428 68.0893C200.505 67.758 200.467 67.4104 200.32 67.1036C200.173 66.7969 199.927 66.549 199.621 66.4008C197.241 65.2408 194.751 64.1408 192.201 63.1308C192.017 63.0586 191.821 63.0233 191.623 63.0269C191.426 63.0305 191.231 63.073 191.05 63.152C190.868 63.2309 190.705 63.3447 190.568 63.4869C190.431 63.6292 190.323 63.797 190.251 63.9808C190.178 64.1647 190.143 64.3609 190.147 64.5584C190.15 64.7559 190.193 64.9508 190.272 65.1319C190.351 65.3129 190.464 65.4767 190.607 65.6138C190.749 65.7509 190.917 65.8586 191.101 65.9308C193.571 66.9308 195.991 67.9308 198.301 69.1008C198.508 69.1954 198.733 69.2432 198.961 69.2408V69.2508ZM184.111 63.3708C184.468 63.3701 184.814 63.2415 185.086 63.0082C185.357 62.7749 185.536 62.4523 185.59 62.0985C185.645 61.7448 185.571 61.3833 185.382 61.0793C185.193 60.7754 184.902 60.5489 184.561 60.4408C182.061 59.6608 179.431 58.9208 176.751 58.2608C176.363 58.1654 175.954 58.2276 175.613 58.4339C175.271 58.6402 175.026 58.9736 174.931 59.3608C174.835 59.7481 174.897 60.1573 175.104 60.4987C175.31 60.84 175.644 61.0853 176.031 61.1808C178.661 61.8208 181.221 62.5408 183.661 63.3008C183.806 63.345 183.958 63.3653 184.111 63.3608V63.3708ZM168.581 59.5108C168.778 59.5292 168.976 59.5086 169.165 59.4502C169.354 59.3918 169.53 59.2968 169.682 59.1705C169.835 59.0442 169.961 58.8892 170.053 58.7142C170.145 58.5393 170.202 58.3478 170.221 58.1508C170.239 57.9538 170.219 57.7552 170.16 57.5662C170.102 57.3771 170.007 57.2015 169.88 57.0492C169.754 56.8969 169.599 56.771 169.424 56.6786C169.249 56.5862 169.058 56.5292 168.861 56.5108C166.311 56.0208 163.621 55.5708 160.861 55.1708C160.463 55.1138 160.059 55.2171 159.737 55.4581C159.415 55.6991 159.203 56.058 159.146 56.4558C159.089 56.8537 159.192 57.2578 159.433 57.5795C159.674 57.9011 160.033 58.1138 160.431 58.1708C163.121 58.5608 165.751 59.0108 168.271 59.4908C168.373 59.5063 168.477 59.5097 168.581 59.5008V59.5108ZM152.731 57.1708C153.129 57.1921 153.518 57.0544 153.815 56.7881C154.111 56.5218 154.29 56.1486 154.311 55.7508C154.332 55.353 154.194 54.9631 153.928 54.6667C153.662 54.3704 153.288 54.1921 152.891 54.1708C150.341 53.8808 147.711 53.6308 144.891 53.4008C144.493 53.369 144.099 53.4965 143.795 53.7553C143.491 54.0141 143.303 54.383 143.271 54.7808C143.239 55.1786 143.366 55.5728 143.625 55.8766C143.884 56.1805 144.253 56.369 144.651 56.4008C147.461 56.6308 150.051 56.8808 152.581 57.1608L152.731 57.1708ZM136.731 55.8308C137.129 55.8428 137.515 55.6962 137.804 55.4233C138.094 55.1504 138.264 54.7736 138.276 54.3758C138.288 53.978 138.141 53.5917 137.868 53.302C137.595 53.0123 137.219 52.8428 136.821 52.8308C134.151 52.6608 131.481 52.5208 128.821 52.3908C128.624 52.381 128.427 52.41 128.241 52.4763C128.055 52.5426 127.884 52.6448 127.738 52.7771C127.592 52.9095 127.473 53.0693 127.389 53.2475C127.304 53.4257 127.255 53.6188 127.246 53.8158C127.236 54.0128 127.265 54.2098 127.331 54.3956C127.397 54.5813 127.5 54.7522 127.632 54.8985C127.764 55.0447 127.924 55.1635 128.102 55.248C128.28 55.3324 128.474 55.381 128.671 55.3908C131.337 55.5175 134.004 55.6642 136.671 55.8308H136.731ZM120.731 55.0208C121.129 55.0288 121.513 54.8784 121.8 54.6027C122.087 54.327 122.253 53.9487 122.261 53.5508C122.269 53.153 122.118 52.7683 121.842 52.4814C121.567 52.1945 121.189 52.0288 120.791 52.0208L119.051 51.9408L112.791 51.6708C112.594 51.6623 112.397 51.6926 112.212 51.7601C112.026 51.8276 111.856 51.931 111.711 52.0642C111.566 52.1975 111.448 52.358 111.365 52.5367C111.281 52.7155 111.234 52.9089 111.226 53.1058C111.217 53.3028 111.247 53.4996 111.315 53.6848C111.382 53.8701 111.486 54.0402 111.619 54.1855C111.752 54.3308 111.913 54.4485 112.092 54.5318C112.27 54.615 112.464 54.6623 112.661 54.6708L118.921 54.9508L120.661 55.0308L120.731 55.0208ZM104.731 54.2708C105.129 54.2815 105.514 54.1336 105.803 53.8598C106.092 53.586 106.26 53.2086 106.271 52.8108C106.281 52.413 106.133 52.0273 105.86 51.7385C105.586 51.4497 105.209 51.2815 104.811 51.2708C101.881 51.1108 99.2808 50.9408 96.8108 50.7608C96.4129 50.7303 96.0191 50.8591 95.7163 51.1189C95.4134 51.3786 95.2263 51.748 95.1958 52.1458C95.1653 52.5437 95.2939 52.9373 95.5537 53.2402C95.8134 53.543 96.1827 53.7303 96.5805 53.7608C99.0305 53.9508 101.661 54.1208 104.581 54.2808L104.731 54.2708ZM88.7307 53.0408C89.1285 53.062 89.5184 52.9244 89.8147 52.6581C90.111 52.3917 90.2895 52.0186 90.3108 51.6208C90.332 51.223 90.1942 50.8331 89.9279 50.5367C89.6616 50.2404 89.2884 50.062 88.8906 50.0408C86.0706 49.7308 83.4907 49.4008 81.0207 49.0408C80.6229 48.9812 80.2175 49.082 79.894 49.3211C79.5705 49.5602 79.3553 49.918 79.2956 50.3158C79.236 50.7137 79.3368 51.1189 79.5759 51.4424C79.815 51.7659 80.1729 51.9812 80.5708 52.0408C83.0808 52.4208 85.7008 52.7608 88.5708 53.0408H88.7307ZM72.9306 50.5608C73.3285 50.6033 73.7267 50.4859 74.0381 50.2346C74.3494 49.9833 74.5481 49.6186 74.5905 49.2208C74.633 48.823 74.5157 48.4246 74.2644 48.1133C74.0131 47.802 73.6485 47.6033 73.2507 47.5608C71.0907 47.0908 69.0108 46.5608 67.0608 45.9708L65.6406 45.5408C65.26 45.4228 64.8481 45.4608 64.4956 45.6465C64.143 45.8321 63.8787 46.1502 63.7607 46.5308C63.6427 46.9114 63.6805 47.3233 63.8662 47.6759C64.0518 48.0284 64.3701 48.2928 64.7507 48.4108L66.2107 48.8508C68.2107 49.4508 70.3706 50.0008 72.6006 50.4908C72.7361 50.5348 72.8783 50.5551 73.0207 50.5508L72.9306 50.5608ZM57.6206 45.9408C57.9693 45.9366 58.3059 45.811 58.572 45.5855C58.8381 45.3601 59.0173 45.049 59.0788 44.7057C59.1404 44.3624 59.0804 44.0083 58.9091 43.7045C58.7379 43.4006 58.4661 43.166 58.1406 43.0408C55.6706 42.1208 53.2008 41.1308 50.8008 40.0408C50.6202 39.962 50.4257 39.9196 50.2287 39.9159C50.0318 39.9122 49.836 39.9473 49.6526 40.0193C49.4692 40.0913 49.3018 40.1987 49.1599 40.3353C49.018 40.472 48.9044 40.6353 48.8257 40.8158C48.7469 40.9964 48.7043 41.1907 48.7007 41.3877C48.697 41.5847 48.7322 41.7804 48.8042 41.9638C48.8761 42.1472 48.9834 42.3146 49.1201 42.4565C49.2568 42.5984 49.42 42.712 49.6006 42.7908C52.0506 43.8608 54.6006 44.8708 57.1006 45.7908C57.2894 45.8764 57.4934 45.924 57.7007 45.9308L57.6206 45.9408ZM42.9607 39.5408C43.2996 39.5445 43.6298 39.4332 43.8974 39.2251C44.165 39.017 44.3543 38.7245 44.4343 38.3951C44.5143 38.0656 44.4804 37.7189 44.3381 37.4112C44.1958 37.1035 43.9535 36.8531 43.6506 36.7008C41.2906 35.5008 38.9507 34.2208 36.7107 32.9008C36.3672 32.6993 35.9576 32.6424 35.5722 32.7427C35.1868 32.8431 34.8573 33.0924 34.6557 33.4358C34.4542 33.7793 34.3972 34.1887 34.4975 34.5741C34.5979 34.9595 34.8472 35.2893 35.1906 35.4908C37.4806 36.8408 39.8707 38.1508 42.2807 39.3808C42.5197 39.4978 42.7854 39.5495 43.0508 39.5308L42.9607 39.5408ZM29.1906 31.4108C29.511 31.41 29.8227 31.3066 30.08 31.1158C30.3374 30.9249 30.5269 30.6568 30.6208 30.3505C30.7147 30.0442 30.708 29.7159 30.6018 29.4137C30.4956 29.1114 30.2956 28.8511 30.0307 28.6708C27.8407 27.1808 25.7006 25.6108 23.6706 24.0108C23.5175 23.8781 23.3391 23.7778 23.1462 23.7159C22.9533 23.6541 22.7498 23.6319 22.5481 23.6509C22.3463 23.6698 22.1504 23.7294 21.9724 23.8261C21.7943 23.9228 21.6377 24.0545 21.5119 24.2134C21.3862 24.3723 21.2941 24.5549 21.2409 24.7505C21.1877 24.946 21.1747 25.1502 21.2026 25.3509C21.2305 25.5516 21.2988 25.7445 21.4033 25.9181C21.5078 26.0917 21.6464 26.2423 21.8108 26.3608C23.8908 28.0108 26.0906 29.6208 28.3506 31.1508C28.6234 31.3369 28.9514 31.4251 29.2807 31.4008L29.1906 31.4108ZM16.6506 21.5008C16.9503 21.4941 17.2413 21.3983 17.4863 21.2256C17.7313 21.053 17.9193 20.8114 18.0266 20.5315C18.1338 20.2516 18.1553 19.9461 18.0883 19.6539C18.0214 19.3617 17.869 19.0961 17.6506 18.8908C15.6506 17.0908 13.8205 15.2108 12.0905 13.3208C11.9674 13.149 11.8095 13.0052 11.6269 12.8988C11.4443 12.7923 11.2414 12.7257 11.0312 12.7032C10.8211 12.6806 10.6084 12.7028 10.4074 12.7682C10.2065 12.8335 10.0217 12.9406 9.86496 13.0824C9.70826 13.2242 9.5833 13.3976 9.49826 13.5911C9.41322 13.7845 9.37007 13.9938 9.37155 14.2051C9.37304 14.4165 9.41906 14.6251 9.50681 14.8174C9.59455 15.0097 9.7219 15.1812 9.88058 15.3208C11.6606 17.3208 13.5906 19.2208 15.6106 21.0808C15.7557 21.2184 15.927 21.3255 16.1142 21.3959C16.3014 21.4663 16.5008 21.4986 16.7007 21.4908L16.6506 21.5008ZM5.91061 9.67084C6.2326 9.67389 6.54632 9.56817 6.80075 9.37082C6.95877 9.25428 7.09216 9.10767 7.19333 8.93939C7.2945 8.77111 7.3613 8.58451 7.39011 8.39029C7.41891 8.19607 7.40902 7.99804 7.36105 7.80765C7.31309 7.61725 7.22796 7.43821 7.11057 7.28082C5.54749 5.19027 4.10854 3.00987 2.80075 0.750823C2.60184 0.406042 2.27407 0.154413 1.88962 0.0512685C1.50517 -0.0518764 1.09548 0.00192286 0.750702 0.200835C0.405921 0.399748 0.15414 0.727457 0.0509949 1.11191C-0.0521502 1.49636 0.00174081 1.90604 0.200653 2.25082C1.56948 4.60804 3.07193 6.8851 4.70065 9.07083C4.85247 9.2681 5.0504 9.42508 5.27707 9.52795C5.50374 9.63083 5.75227 9.67645 6.0007 9.66083L5.91061 9.67084Z" fill="#F530DD"/>
</svg>
