<?xml version="1.0" encoding="UTF-8" standalone="no"?>
<!-- Created with Inkscape (http://www.inkscape.org/) -->

<svg
   width="210mm"
   height="297mm"
   viewBox="0 0 210 297"
   version="1.1"
   id="svg5"
   inkscape:version="1.1.1 (3bf5ae0d25, 2021-09-20)"
   sodipodi:docname="mac.svg"
   xmlns:inkscape="http://www.inkscape.org/namespaces/inkscape"
   xmlns:sodipodi="http://sodipodi.sourceforge.net/DTD/sodipodi-0.dtd"
   xmlns="http://www.w3.org/2000/svg"
   xmlns:svg="http://www.w3.org/2000/svg">
  <sodipodi:namedview
     id="namedview7"
     pagecolor="#ffffff"
     bordercolor="#666666"
     borderopacity="1.0"
     inkscape:pageshadow="2"
     inkscape:pageopacity="0.0"
     inkscape:pagecheckerboard="0"
     inkscape:document-units="mm"
     showgrid="false"
     inkscape:zoom="2"
     inkscape:cx="332.75"
     inkscape:cy="413.75"
     inkscape:window-width="2560"
     inkscape:window-height="1377"
     inkscape:window-x="-8"
     inkscape:window-y="-8"
     inkscape:window-maximized="1"
     inkscape:current-layer="layer1" />
  <defs
     id="defs2">
    <inkscape:path-effect
       effect="spiro"
       id="path-effect7611"
       is_visible="true"
       lpeversion="1" />
  </defs>
  <g
     inkscape:label="Layer 1"
     inkscape:groupmode="layer"
     id="layer1"
     style="display:inline">
    <rect
       style="display:inline;fill:#f4f8fc;fill-opacity:1;stroke:none;stroke-width:0.580413;stroke-miterlimit:4;stroke-dasharray:none"
       id="rect8427-9"
       width="195.63077"
       height="119.27419"
       x="6.4639177"
       y="48.649487"
       ry="8.4066725" />
    <rect
       style="display:inline;fill:#a8a8a8;fill-opacity:1;stroke:none;stroke-width:0.149898;stroke-miterlimit:4;stroke-dasharray:none"
       id="rect8427-9-5"
       width="195.63077"
       height="7.9553685"
       x="6.4639177"
       y="48.756851"
       ry="3.9776843" />
    <ellipse
       style="fill:#ffffff;fill-opacity:1;stroke:none;stroke-width:0.112;stroke-miterlimit:4;stroke-dasharray:none"
       id="path8470-6"
       cx="238.85481"
       cy="57.660057"
       rx="0.63189101"
       ry="0.55290467" />
    <ellipse
       style="fill:#ffffff;fill-opacity:1;stroke:none;stroke-width:0.112;stroke-miterlimit:4;stroke-dasharray:none"
       id="path8470-0"
       cx="238.85481"
       cy="57.660057"
       rx="0.63189101"
       ry="0.55290467" />
    <path
       style="fill:#f9bf39;fill-opacity:1;stroke-width:0.011484"
       d=""
       id="path1751"
       transform="scale(0.26458333)" />
    <path
       style="fill:#f9bf39;fill-opacity:1;stroke-width:0.011484"
       d=""
       id="path1790"
       transform="scale(0.26458333)" />
    <rect
       style="fill:#a8a8a8;fill-opacity:1;stroke:#a8a8a8;stroke-width:0.263252;stroke-opacity:1"
       id="rect6984"
       width="195.39995"
       height="4.4624772"
       x="6.5485644"
       y="52.254539"
       rx="0"
       ry="0" />
    <ellipse
       style="display:inline;fill:#ffffff;fill-opacity:1;stroke:none;stroke-width:0.0884929;stroke-miterlimit:4;stroke-dasharray:none"
       id="path8470-7"
       cx="198.67924"
       cy="54.188011"
       rx="0.49516001"
       ry="0.44048139" />
    <ellipse
       style="display:inline;fill:#ffffff;fill-opacity:1;stroke:none;stroke-width:0.0884929;stroke-miterlimit:4;stroke-dasharray:none"
       id="path8470"
       cx="198.65984"
       cy="51.47184"
       rx="0.49516001"
       ry="0.44048139" />
    <ellipse
       style="display:inline;fill:#ffffff;fill-opacity:1;stroke:none;stroke-width:0.0884929;stroke-miterlimit:4;stroke-dasharray:none"
       id="path8470-62"
       cx="198.64886"
       cy="52.784241"
       rx="0.49516001"
       ry="0.44048139" />
    <ellipse
       style="display:inline;fill:#f4654b;fill-opacity:1;stroke:none;stroke-width:0.112;stroke-miterlimit:4;stroke-dasharray:none"
       id="path9766"
       cx="10.206101"
       cy="52.484055"
       rx="1.3922411"
       ry="1.3234885" />
    <ellipse
       style="display:inline;fill:#f9bf39;fill-opacity:1;stroke:none;stroke-width:0.112;stroke-miterlimit:4;stroke-dasharray:none"
       id="path9766-8"
       cx="14.001019"
       cy="52.466869"
       rx="1.3922411"
       ry="1.3234885" />
    <path
       style="display:inline;fill:#24ca40;fill-opacity:1;stroke-width:0.00303847"
       d="m 17.726703,53.795757 c -0.0075,-5.29e-4 -0.03077,-0.0026 -0.05165,-0.0044 -0.104792,-0.0089 -0.216392,-0.03177 -0.320558,-0.06567 -0.217824,-0.0709 -0.414565,-0.192789 -0.571316,-0.353952 -0.203594,-0.209322 -0.325984,-0.466055 -0.361946,-0.75924 -0.0067,-0.05494 -0.0077,-0.204306 -0.0017,-0.259757 0.03368,-0.309433 0.166678,-0.581578 0.391366,-0.800796 0.217414,-0.212119 0.501146,-0.347295 0.812456,-0.38707 0.159541,-0.02037 0.346237,-0.0113 0.502866,0.0245 0.507954,0.116033 0.904333,0.49045 1.028491,0.97151 0.02676,0.103685 0.03635,0.17558 0.03855,0.289097 0.0013,0.06643 5.29e-4,0.09673 -0.0034,0.13825 -0.02438,0.255603 -0.119622,0.488471 -0.283356,0.692833 -0.03971,0.04956 -0.11997,0.132257 -0.168973,0.174095 -0.221529,0.18914 -0.487282,0.302356 -0.786005,0.334849 -0.04128,0.0045 -0.193658,0.0084 -0.224846,0.0057 z"
       id="path2679" />
    <rect
       style="display:inline;fill:#ffffff;fill-opacity:1;stroke:none;stroke-width:0.112;stroke-miterlimit:4;stroke-dasharray:none"
       id="rect8427"
       width="161.7641"
       height="5.3710747"
       x="24.146446"
       y="50.071632"
       ry="2.6855373" />
    <ellipse
       style="display:inline;fill:#ffffff;fill-opacity:1;stroke:#292833;stroke-width:0.264583;stroke-opacity:1"
       id="path2973"
       cx="181.79797"
       cy="52.4832"
       rx="1.361233"
       ry="1.3126175" />
    <path
       style="fill:none;stroke:#292833;stroke-width:0.264583px;stroke-linecap:butt;stroke-linejoin:miter;stroke-opacity:1"
       d="m 182.76955,53.536611 c 0.36623,0.406463 0.73695,0.808882 1.11207,1.207161 0.0468,0.04967 0.0936,0.09928 0.14056,0.148828"
       id="path7609"
       inkscape:path-effect="#path-effect7611"
       inkscape:original-d="m 182.76955,53.536611 c -0.37096,-0.402651 1.41217,0.750151 1.11207,1.207161 -0.21248,0.323574 0.14056,0.148828 0.14056,0.148828"
       sodipodi:nodetypes="csc" />
  </g>
</svg>
