<svg width="247" height="125" viewBox="0 0 247 125" fill="none" xmlns="http://www.w3.org/2000/svg">
<path d="M1.49881 124.191C1.33527 124.194 1.17261 124.167 1.01883 124.111C0.642396 123.983 0.331795 123.712 0.155549 123.355C-0.0206967 122.999 -0.0483636 122.587 0.0786448 122.211L0.618684 120.641C0.751292 120.266 1.02762 119.958 1.38675 119.787C1.74588 119.615 2.15844 119.593 2.53372 119.726C2.909 119.858 3.21613 120.135 3.38773 120.494C3.55932 120.853 3.58137 121.266 3.44876 121.641C3.27876 122.151 3.09874 122.641 2.92874 123.181C2.82485 123.477 2.6313 123.733 2.37503 123.914C2.11876 124.095 1.81256 124.192 1.49881 124.191ZM4.91873 115.191C4.71603 115.191 4.51534 115.15 4.32864 115.071C4.14275 114.995 3.9742 114.882 3.83304 114.739C3.69188 114.596 3.58115 114.426 3.50736 114.239C3.43356 114.052 3.3982 113.853 3.4036 113.652C3.40899 113.451 3.45488 113.253 3.53861 113.071C4.60861 110.551 5.75877 108.071 6.95877 105.741C7.04873 105.566 7.17234 105.41 7.32254 105.282C7.47274 105.155 7.64644 105.058 7.83402 104.997C8.02159 104.937 8.21941 104.914 8.4158 104.93C8.6122 104.946 8.80348 105.001 8.97879 105.091C9.15411 105.181 9.30999 105.304 9.43753 105.455C9.56508 105.605 9.66184 105.779 9.7222 105.966C9.78256 106.154 9.80536 106.351 9.78934 106.548C9.77332 106.744 9.71865 106.936 9.62869 107.111C8.45869 109.391 7.33862 111.791 6.29862 114.241C6.18764 114.517 5.9972 114.753 5.7515 114.921C5.50579 115.088 5.21601 115.179 4.91873 115.181V115.191ZM12.1988 101.011C11.9232 101.013 11.6528 100.936 11.4187 100.791C11.2506 100.688 11.1043 100.554 10.9886 100.394C10.8728 100.235 10.7897 100.055 10.7442 99.863C10.6986 99.6715 10.6915 99.4728 10.7232 99.2784C10.7549 99.0841 10.8247 98.898 10.9287 98.7308C12.3587 96.4108 13.9288 94.1508 15.4788 92.0208C15.7175 91.7013 16.0733 91.4896 16.4681 91.4324C16.8628 91.3752 17.2642 91.4771 17.5838 91.7158C17.9034 91.9545 18.115 92.3104 18.1722 92.7052C18.2294 93.0999 18.1274 93.5012 17.8887 93.8208C16.3487 95.8708 14.8888 98.0608 13.4788 100.301C13.3433 100.517 13.1544 100.696 12.9302 100.818C12.7061 100.941 12.4542 101.004 12.1988 101.001V101.011ZM21.7488 88.2608C21.459 88.2587 21.1759 88.1731 20.9334 88.0145C20.6909 87.8559 20.4992 87.6308 20.3811 87.3662C20.2631 87.1016 20.2237 86.8086 20.2676 86.5221C20.3115 86.2357 20.4368 85.9679 20.6287 85.7508C22.4387 83.7508 24.3687 81.8108 26.3587 80.0008C26.5004 79.8482 26.6724 79.7267 26.8636 79.6442C27.0548 79.5616 27.261 79.5198 27.4693 79.5213C27.6775 79.5229 27.8831 79.5677 28.073 79.6531C28.263 79.7385 28.4331 79.8625 28.5725 80.0173C28.7119 80.172 28.8177 80.3541 28.8828 80.5519C28.948 80.7497 28.9713 80.9589 28.9512 81.1662C28.9311 81.3735 28.8679 81.5743 28.7659 81.7559C28.6639 81.9374 28.5252 82.0958 28.3587 82.2208C26.4387 83.9708 24.5787 85.8308 22.8387 87.7608C22.7006 87.9133 22.5326 88.0356 22.345 88.1199C22.1574 88.2042 21.9545 88.2488 21.7488 88.2508V88.2608ZM33.5288 77.5408C33.2947 77.5421 33.0635 77.4874 32.8548 77.3813C32.646 77.2752 32.4656 77.1207 32.3286 76.9308C32.0899 76.6126 31.9875 76.2125 32.0437 75.8187C32.1 75.4249 32.3104 75.0695 32.6287 74.8308C34.7787 73.2308 37.0487 71.7108 39.3687 70.3008C39.5369 70.1822 39.7277 70.0994 39.9292 70.0577C40.1308 70.016 40.3386 70.0162 40.5401 70.0583C40.7415 70.1004 40.9322 70.1835 41.1001 70.3024C41.2681 70.4214 41.4098 70.5736 41.5164 70.7497C41.623 70.9257 41.6922 71.1218 41.7198 71.3258C41.7473 71.5297 41.7326 71.7372 41.6765 71.9352C41.6205 72.1332 41.5242 72.3176 41.3938 72.4768C41.2634 72.6361 41.1018 72.7668 40.9187 72.8608C38.6787 74.2208 36.4987 75.6908 34.4187 77.2408C34.1616 77.4319 33.8492 77.5337 33.5288 77.5308V77.5408ZM47.1487 69.2508C46.8087 69.2522 46.4783 69.1381 46.2117 68.927C45.9451 68.7159 45.7579 68.4206 45.6812 68.0893C45.6045 67.758 45.6426 67.4104 45.7893 67.1036C45.9361 66.7969 46.1827 66.549 46.4888 66.4008C48.8688 65.2408 51.3587 64.1408 53.9087 63.1308C54.0926 63.0586 54.2889 63.0233 54.4864 63.0269C54.6839 63.0305 54.8788 63.073 55.0598 63.152C55.2409 63.2309 55.4047 63.3447 55.5418 63.4869C55.6789 63.6292 55.7864 63.797 55.8587 63.9808C55.9309 64.1647 55.9663 64.3609 55.9627 64.5584C55.959 64.7559 55.9166 64.9508 55.8377 65.1319C55.7587 65.3129 55.6449 65.4767 55.5027 65.6138C55.3605 65.7509 55.1927 65.8586 55.0088 65.9308C52.5388 66.9308 50.1186 67.9308 47.8086 69.1008C47.6016 69.1954 47.3763 69.2432 47.1487 69.2408V69.2508ZM61.9988 63.3708C61.6409 63.3701 61.2951 63.2415 61.0237 63.0082C60.7524 62.7749 60.5734 62.4523 60.5191 62.0985C60.4647 61.7448 60.5385 61.3833 60.7273 61.0793C60.9162 60.7754 61.2074 60.5489 61.5486 60.4408C64.0486 59.6608 66.6787 58.9208 69.3587 58.2608C69.7459 58.1654 70.1553 58.2276 70.4966 58.4339C70.8379 58.6402 71.0833 58.9736 71.1787 59.3608C71.2742 59.7481 71.2119 60.1573 71.0056 60.4987C70.7994 60.84 70.4659 61.0853 70.0786 61.1808C67.4486 61.8208 64.8888 62.5408 62.4488 63.3008C62.303 63.345 62.1511 63.3653 61.9988 63.3608V63.3708ZM77.5288 59.5108C77.3319 59.5292 77.1331 59.5086 76.9441 59.4502C76.7551 59.3918 76.5793 59.2968 76.427 59.1705C76.2747 59.0442 76.1488 58.8892 76.0564 58.7142C75.9641 58.5393 75.9071 58.3478 75.8887 58.1508C75.8703 57.9538 75.8909 57.7552 75.9492 57.5662C76.0076 57.3771 76.1027 57.2015 76.229 57.0492C76.3553 56.8969 76.5104 56.771 76.6853 56.6786C76.8603 56.5862 77.0518 56.5292 77.2488 56.5108C79.7988 56.0208 82.4888 55.5708 85.2488 55.1708C85.6466 55.1138 86.0507 55.2171 86.3723 55.4581C86.694 55.6991 86.9066 56.058 86.9637 56.4558C87.0207 56.8537 86.9173 57.2578 86.6763 57.5795C86.4353 57.9011 86.0766 58.1138 85.6787 58.1708C82.9887 58.5608 80.3587 59.0108 77.8387 59.4908C77.7361 59.5063 77.6322 59.5097 77.5288 59.5008V59.5108ZM93.3787 57.1708C92.9809 57.1921 92.591 57.0544 92.2947 56.7881C91.9984 56.5218 91.8198 56.1486 91.7986 55.7508C91.7774 55.353 91.9151 54.9631 92.1814 54.6667C92.4477 54.3704 92.821 54.1921 93.2188 54.1708C95.7688 53.8808 98.3988 53.6308 101.219 53.4008C101.617 53.369 102.011 53.4965 102.314 53.7553C102.618 54.0141 102.807 54.383 102.839 54.7808C102.87 55.1786 102.743 55.5728 102.484 55.8766C102.225 56.1805 101.857 56.369 101.459 56.4008C98.6488 56.6308 96.0588 56.8808 93.5288 57.1608L93.3787 57.1708ZM109.379 55.8308C108.981 55.8428 108.595 55.6962 108.305 55.4233C108.015 55.1504 107.846 54.7736 107.834 54.3758C107.822 53.978 107.968 53.5917 108.241 53.302C108.514 53.0123 108.891 52.8428 109.289 52.8308C111.959 52.6608 114.629 52.5208 117.289 52.3908C117.486 52.381 117.683 52.41 117.868 52.4763C118.054 52.5426 118.225 52.6448 118.371 52.7771C118.518 52.9095 118.636 53.0693 118.721 53.2475C118.805 53.4257 118.854 53.6188 118.864 53.8158C118.874 54.0128 118.845 54.2098 118.778 54.3956C118.712 54.5813 118.61 54.7522 118.477 54.8985C118.345 55.0447 118.185 55.1635 118.007 55.248C117.829 55.3324 117.636 55.381 117.439 55.3908C114.772 55.5175 112.105 55.6642 109.439 55.8308H109.379ZM125.379 55.0208C124.981 55.0288 124.596 54.8784 124.309 54.6027C124.022 54.327 123.857 53.9487 123.849 53.5508C123.841 53.153 123.991 52.7683 124.267 52.4814C124.543 52.1945 124.921 52.0288 125.319 52.0208L127.059 51.9408L133.319 51.6708C133.516 51.6623 133.712 51.6926 133.898 51.7601C134.083 51.8276 134.253 51.931 134.398 52.0642C134.544 52.1975 134.661 52.358 134.745 52.5367C134.828 52.7155 134.875 52.9089 134.884 53.1058C134.892 53.3028 134.862 53.4996 134.794 53.6848C134.727 53.8701 134.624 54.0402 134.49 54.1855C134.357 54.3308 134.197 54.4485 134.018 54.5318C133.839 54.615 133.646 54.6623 133.449 54.6708L127.189 54.9508L125.449 55.0308L125.379 55.0208ZM141.379 54.2708C140.981 54.2815 140.595 54.1336 140.306 53.8598C140.018 53.586 139.849 53.2086 139.839 52.8108C139.828 52.413 139.976 52.0273 140.25 51.7385C140.524 51.4497 140.901 51.2815 141.299 51.2708C144.229 51.1108 146.829 50.9408 149.299 50.7608C149.696 50.7303 150.09 50.8591 150.393 51.1189C150.696 51.3786 150.883 51.748 150.914 52.1458C150.944 52.5437 150.815 52.9373 150.556 53.2402C150.296 53.543 149.927 53.7303 149.529 53.7608C147.079 53.9508 144.449 54.1208 141.529 54.2808L141.379 54.2708ZM157.379 53.0408C156.981 53.062 156.591 52.9244 156.295 52.6581C155.998 52.3917 155.82 52.0186 155.799 51.6208C155.777 51.223 155.915 50.8331 156.181 50.5367C156.448 50.2404 156.821 50.062 157.219 50.0408C160.039 49.7308 162.619 49.4008 165.089 49.0408C165.486 48.9812 165.892 49.082 166.215 49.3211C166.539 49.5602 166.754 49.918 166.814 50.3158C166.873 50.7137 166.773 51.1189 166.533 51.4424C166.294 51.7659 165.936 51.9812 165.539 52.0408C163.029 52.4208 160.409 52.7608 157.539 53.0408H157.379ZM173.179 50.5608C172.781 50.6033 172.383 50.4859 172.071 50.2346C171.76 49.9833 171.561 49.6186 171.519 49.2208C171.476 48.823 171.594 48.4246 171.845 48.1133C172.096 47.802 172.461 47.6033 172.859 47.5608C175.019 47.0908 177.099 46.5608 179.049 45.9708L180.469 45.5408C180.849 45.4228 181.261 45.4608 181.614 45.6465C181.966 45.8321 182.231 46.1502 182.349 46.5308C182.467 46.9114 182.429 47.3233 182.243 47.6759C182.058 48.0284 181.739 48.2928 181.359 48.4108L179.899 48.8508C177.899 49.4508 175.739 50.0008 173.509 50.4908C173.373 50.5348 173.231 50.5551 173.089 50.5508L173.179 50.5608ZM188.489 45.9408C188.14 45.9366 187.804 45.811 187.537 45.5855C187.271 45.3601 187.092 45.049 187.031 44.7057C186.969 44.3624 187.029 44.0083 187.2 43.7045C187.371 43.4006 187.643 43.166 187.969 43.0408C190.439 42.1208 192.909 41.1308 195.309 40.0408C195.489 39.962 195.684 39.9196 195.881 39.9159C196.078 39.9122 196.273 39.9473 196.457 40.0193C196.64 40.0913 196.808 40.1987 196.949 40.3353C197.091 40.472 197.205 40.6353 197.284 40.8158C197.363 40.9964 197.405 41.1907 197.409 41.3877C197.412 41.5847 197.377 41.7804 197.305 41.9638C197.233 42.1472 197.126 42.3146 196.989 42.4565C196.853 42.5984 196.689 42.712 196.509 42.7908C194.059 43.8608 191.509 44.8708 189.009 45.7908C188.82 45.8764 188.616 45.924 188.409 45.9308L188.489 45.9408ZM203.149 39.5408C202.81 39.5445 202.48 39.4332 202.212 39.2251C201.944 39.017 201.755 38.7245 201.675 38.3951C201.595 38.0656 201.629 37.7189 201.771 37.4112C201.914 37.1035 202.156 36.8531 202.459 36.7008C204.819 35.5008 207.159 34.2208 209.399 32.9008C209.742 32.6993 210.152 32.6424 210.537 32.7427C210.923 32.8431 211.252 33.0924 211.454 33.4358C211.655 33.7793 211.712 34.1887 211.612 34.5741C211.512 34.9595 211.262 35.2893 210.919 35.4908C208.629 36.8408 206.239 38.1508 203.829 39.3808C203.59 39.4978 203.324 39.5495 203.059 39.5308L203.149 39.5408ZM216.919 31.4108C216.598 31.41 216.287 31.3066 216.029 31.1158C215.772 30.9249 215.582 30.6568 215.489 30.3505C215.395 30.0442 215.401 29.7159 215.508 29.4137C215.614 29.1114 215.814 28.8511 216.079 28.6708C218.269 27.1808 220.409 25.6108 222.439 24.0108C222.592 23.8781 222.77 23.7778 222.963 23.7159C223.156 23.6541 223.36 23.6319 223.561 23.6509C223.763 23.6698 223.959 23.7294 224.137 23.8261C224.315 23.9228 224.472 24.0545 224.597 24.2134C224.723 24.3723 224.815 24.5549 224.868 24.7505C224.922 24.946 224.935 25.1502 224.907 25.3509C224.879 25.5516 224.811 25.7445 224.706 25.9181C224.602 26.0917 224.463 26.2423 224.299 26.3608C222.219 28.0108 220.019 29.6208 217.759 31.1508C217.486 31.3369 217.158 31.4251 216.829 31.4008L216.919 31.4108ZM229.459 21.5008C229.159 21.4941 228.868 21.3983 228.623 21.2256C228.378 21.053 228.19 20.8114 228.083 20.5315C227.976 20.2516 227.954 19.9461 228.021 19.6539C228.088 19.3617 228.24 19.0961 228.459 18.8908C230.459 17.0908 232.289 15.2108 234.019 13.3208C234.142 13.149 234.3 13.0052 234.482 12.8988C234.665 12.7923 234.868 12.7257 235.078 12.7032C235.288 12.6806 235.501 12.7028 235.702 12.7682C235.903 12.8335 236.088 12.9406 236.244 13.0824C236.401 13.2242 236.526 13.3976 236.611 13.5911C236.696 13.7845 236.739 13.9938 236.738 14.2051C236.736 14.4165 236.69 14.6251 236.603 14.8174C236.515 15.0097 236.387 15.1812 236.229 15.3208C234.449 17.3208 232.519 19.2208 230.499 21.0808C230.354 21.2184 230.182 21.3255 229.995 21.3959C229.808 21.4663 229.609 21.4986 229.409 21.4908L229.459 21.5008ZM240.199 9.67084C239.877 9.67389 239.563 9.56817 239.309 9.37082C239.151 9.25428 239.017 9.10767 238.916 8.93939C238.815 8.77111 238.748 8.58451 238.719 8.39029C238.69 8.19607 238.7 7.99804 238.748 7.80765C238.796 7.61725 238.881 7.43821 238.999 7.28082C240.562 5.19027 242.001 3.00987 243.309 0.750823C243.508 0.406042 243.835 0.154413 244.22 0.0512685C244.604 -0.0518764 245.014 0.00192286 245.359 0.200835C245.703 0.399748 245.955 0.727457 246.058 1.11191C246.162 1.49636 246.108 1.90604 245.909 2.25082C244.54 4.60804 243.037 6.8851 241.409 9.07083C241.257 9.2681 241.059 9.42508 240.832 9.52795C240.606 9.63083 240.357 9.67645 240.109 9.66083L240.199 9.67084Z" fill="#F530DD"/>
</svg>
