<?xml version="1.0" encoding="UTF-8" standalone="no"?>
<!DOCTYPE svg PUBLIC "-//W3C//DTD SVG 1.1//EN" "http://www.w3.org/Graphics/SVG/1.1/DTD/svg11.dtd">
<svg version="1.1" xmlns="http://www.w3.org/2000/svg" xmlns:xlink="http://www.w3.org/1999/xlink" preserveAspectRatio="xMidYMid meet" viewBox="170 80 262 222" width="240" height="200"><defs><path d="M325 115C325 128.8 313.8 140 300 140C286.2 140 275 128.8 275 115C275 101.2 286.2 90 300 90C313.8 90 325 101.2 325 115Z" id="c1aSDI4k6f"></path><path d="M260 150C265.52 150 270 154.48 270 160C270 182 270 238 270 260C270 265.52 265.52 270 260 270C244 270 206 270 190 270C184.48 270 180 265.52 180 260C180 238 180 182 180 160C180 154.48 184.48 150 190 150C206 150 244 150 260 150Z" id="axR1yXVbp"></path><path d="M410 150C415.52 150 420 154.48 420 160C420 182 420 238 420 260C420 265.52 415.52 270 410 270C394 270 356 270 340 270C334.48 270 330 265.52 330 260C330 238 330 182 330 160C330 154.48 334.48 150 340 150C356 150 394 150 410 150Z" id="b2a3rkPEjf"></path><path d="M340 150C345.52 150 350 154.48 350 160C350 186 350 254 350 280C350 285.52 345.52 290 340 290C322 290 278 290 260 290C254.48 290 250 285.52 250 280C250 254 250 186 250 160C250 154.48 254.48 150 260 150C278 150 322 150 340 150Z" id="aY7XRonpf"></path><path d="M244.89 123C244.89 134.04 236.4 143 225.94 143C215.49 143 207 134.04 207 123C207 111.96 215.49 103 225.94 103C236.4 103 244.89 111.96 244.89 123Z" id="bnUwHlHAt"></path><path d="M393.89 123C393.89 134.04 385.4 143 374.94 143C364.49 143 356 134.04 356 123C356 111.96 364.49 103 374.94 103C385.4 103 393.89 111.96 393.89 123Z" id="cMy1PsonQ"></path></defs><g><g><g><filter id="shadow6902285" x="248" y="63" width="105" height="105" filterUnits="userSpaceOnUse" primitiveUnits="userSpaceOnUse"><feFlood></feFlood><feComposite in2="SourceAlpha" operator="in"></feComposite><feGaussianBlur stdDeviation="3.16"></feGaussianBlur><feOffset dx="1" dy="1" result="afterOffset"></feOffset><feFlood flood-color="#000000" flood-opacity="0.5"></feFlood><feComposite in2="afterOffset" operator="in"></feComposite><feMorphology operator="dilate" radius="1"></feMorphology><feComposite in2="SourceAlpha" operator="out"></feComposite></filter><path d="M325 115C325 128.8 313.8 140 300 140C286.2 140 275 128.8 275 115C275 101.2 286.2 90 300 90C313.8 90 325 101.2 325 115Z" id="clbisQ9xt" fill="white" fill-opacity="1" filter="url(#shadow6902285)"></path></g><use xlink:href="#c1aSDI4k6f" opacity="1" fill="#3d87ff" fill-opacity="1"></use></g><g><g><filter id="shadow14423250" x="153" y="123" width="145" height="175" filterUnits="userSpaceOnUse" primitiveUnits="userSpaceOnUse"><feFlood></feFlood><feComposite in2="SourceAlpha" operator="in"></feComposite><feGaussianBlur stdDeviation="3.16"></feGaussianBlur><feOffset dx="1" dy="1" result="afterOffset"></feOffset><feFlood flood-color="#000000" flood-opacity="0.5"></feFlood><feComposite in2="afterOffset" operator="in"></feComposite><feMorphology operator="dilate" radius="1"></feMorphology><feComposite in2="SourceAlpha" operator="out"></feComposite></filter><path d="M260 150C265.52 150 270 154.48 270 160C270 182 270 238 270 260C270 265.52 265.52 270 260 270C244 270 206 270 190 270C184.48 270 180 265.52 180 260C180 238 180 182 180 160C180 154.48 184.48 150 190 150C206 150 244 150 260 150Z" id="a4tJzz3tGG" fill="white" fill-opacity="1" filter="url(#shadow14423250)"></path></g><use xlink:href="#axR1yXVbp" opacity="1" fill="#70a7ff" fill-opacity="1"></use></g><g><g><filter id="shadow5000301" x="303" y="123" width="145" height="175" filterUnits="userSpaceOnUse" primitiveUnits="userSpaceOnUse"><feFlood></feFlood><feComposite in2="SourceAlpha" operator="in"></feComposite><feGaussianBlur stdDeviation="3.16"></feGaussianBlur><feOffset dx="1" dy="1" result="afterOffset"></feOffset><feFlood flood-color="#000000" flood-opacity="0.5"></feFlood><feComposite in2="afterOffset" operator="in"></feComposite><feMorphology operator="dilate" radius="1"></feMorphology><feComposite in2="SourceAlpha" operator="out"></feComposite></filter><path d="M410 150C415.52 150 420 154.48 420 160C420 182 420 238 420 260C420 265.52 415.52 270 410 270C394 270 356 270 340 270C334.48 270 330 265.52 330 260C330 238 330 182 330 160C330 154.48 334.48 150 340 150C356 150 394 150 410 150Z" id="g1F63LoEVs" fill="white" fill-opacity="1" filter="url(#shadow5000301)"></path></g><use xlink:href="#b2a3rkPEjf" opacity="1" fill="#70a7ff" fill-opacity="1"></use></g><g><g><filter id="shadow2323642" x="223" y="123" width="155" height="195" filterUnits="userSpaceOnUse" primitiveUnits="userSpaceOnUse"><feFlood></feFlood><feComposite in2="SourceAlpha" operator="in"></feComposite><feGaussianBlur stdDeviation="3.16"></feGaussianBlur><feOffset dx="1" dy="1" result="afterOffset"></feOffset><feFlood flood-color="#000000" flood-opacity="0.5"></feFlood><feComposite in2="afterOffset" operator="in"></feComposite><feMorphology operator="dilate" radius="1"></feMorphology><feComposite in2="SourceAlpha" operator="out"></feComposite></filter><path d="M340 150C345.52 150 350 154.48 350 160C350 186 350 254 350 280C350 285.52 345.52 290 340 290C322 290 278 290 260 290C254.48 290 250 285.52 250 280C250 254 250 186 250 160C250 154.48 254.48 150 260 150C278 150 322 150 340 150Z" id="afrcpvSF8" fill="white" fill-opacity="1" filter="url(#shadow2323642)"></path></g><use xlink:href="#aY7XRonpf" opacity="1" fill="#3d87ff" fill-opacity="1"></use></g><g><g><filter id="shadow12750553" x="180" y="76" width="92.89" height="95" filterUnits="userSpaceOnUse" primitiveUnits="userSpaceOnUse"><feFlood></feFlood><feComposite in2="SourceAlpha" operator="in"></feComposite><feGaussianBlur stdDeviation="3.16"></feGaussianBlur><feOffset dx="1" dy="1" result="afterOffset"></feOffset><feFlood flood-color="#000000" flood-opacity="0.5"></feFlood><feComposite in2="afterOffset" operator="in"></feComposite><feMorphology operator="dilate" radius="1"></feMorphology><feComposite in2="SourceAlpha" operator="out"></feComposite></filter><path d="M244.89 123C244.89 134.04 236.4 143 225.94 143C215.49 143 207 134.04 207 123C207 111.96 215.49 103 225.94 103C236.4 103 244.89 111.96 244.89 123Z" id="b2OWjgiGMc" fill="white" fill-opacity="1" filter="url(#shadow12750553)"></path></g><use xlink:href="#bnUwHlHAt" opacity="1" fill="#70a7ff" fill-opacity="1"></use></g><g><g><filter id="shadow12216391" x="329" y="76" width="92.89" height="95" filterUnits="userSpaceOnUse" primitiveUnits="userSpaceOnUse"><feFlood></feFlood><feComposite in2="SourceAlpha" operator="in"></feComposite><feGaussianBlur stdDeviation="3.16"></feGaussianBlur><feOffset dx="1" dy="1" result="afterOffset"></feOffset><feFlood flood-color="#000000" flood-opacity="0.5"></feFlood><feComposite in2="afterOffset" operator="in"></feComposite><feMorphology operator="dilate" radius="1"></feMorphology><feComposite in2="SourceAlpha" operator="out"></feComposite></filter><path d="M393.89 123C393.89 134.04 385.4 143 374.94 143C364.49 143 356 134.04 356 123C356 111.96 364.49 103 374.94 103C385.4 103 393.89 111.96 393.89 123Z" id="a1TkDsZ4Gd" fill="white" fill-opacity="1" filter="url(#shadow12216391)"></path></g><use xlink:href="#cMy1PsonQ" opacity="1" fill="#70a7ff" fill-opacity="1"></use></g></g></svg>